<svg width="51" height="64" viewBox="0 0 51 64" fill="none" xmlns="http://www.w3.org/2000/svg">
<path d="M24.0001 0L17.6667 3.51852L24.0001 7.03704V0Z" fill="#008BA2"/>
<path d="M33.1483 7.03707L26.8149 10.5556V7.03707V3.51855L33.1483 7.03707Z" fill="#008BA2"/>
<path d="M33.1483 8.44434L26.8149 11.9629L33.1483 15.4814V8.44434Z" fill="#008BA2"/>
<path d="M9.92603 7.03707L16.2594 3.51855V10.5556L9.92603 7.03707Z" fill="#008BA2"/>
<path d="M19.7781 15.4812V7.74048L22.9447 9.85159L26.1114 11.9627L19.7781 15.4812Z" fill="#005667"/>
<path d="M12.0369 18.9998V11.259L18.3702 14.7776L12.0369 18.9998Z" fill="#013943"/>
<path d="M11.3333 15.4814L5 19.7037L11.3333 23.2222V15.4814Z" fill="#005667"/>
<path d="M7.11108 30.2592V23.2222L13.4444 26.7407L7.11108 30.2592Z" fill="#013943"/>
<path d="M19.7777 23.2221L13.4443 19.7036V26.7407L19.7777 23.2221Z" fill="#008499"/>
<path d="M19.7777 15.4814L13.4443 19.7037L19.7777 23.2222V15.4814Z" fill="#008BA2"/>
<path d="M39.4813 11.9629L33.1479 8.44434V15.4814L39.4813 11.9629Z" fill="#013943"/>
<path d="M39.4813 19.7039L33.1479 15.4817L39.4813 11.9631V19.7039Z" fill="#005667"/>
<path d="M26.8149 19.7037L33.1483 15.4814V23.2222L26.8149 19.7037Z" fill="#008BA2"/>
<path d="M33.1479 23.2221L39.4813 19.7036V26.7407L33.1479 23.2221Z" fill="#008499"/>
<path d="M45.8148 23.2221L39.4814 19.7036V26.7407L45.8148 23.2221Z" fill="#013943"/>
<path d="M45.8148 30.2592L39.4814 26.7407L45.8148 23.2222V30.2592Z" fill="#005667"/>
<path d="M39.4814 34.4812V26.7405L45.8148 30.259L39.4814 34.4812Z" fill="#008499"/>
<path d="M33.1479 30.9627L39.4813 26.7405V34.4812L33.1479 30.9627Z" fill="#008BA2"/>
<path d="M33.1479 37.9999V30.9629L39.4813 34.4814L33.1479 37.9999Z" fill="#013943"/>
<path d="M33.1483 30.9629L26.8149 34.4814L33.1483 37.9999V30.9629Z" fill="#005667"/>
<path d="M19.7777 37.9999L13.4443 34.4814L19.7777 30.9629V37.9999Z" fill="#013943"/>
<path d="M26.8151 34.4814L19.7781 30.9629V37.9999L26.8151 34.4814Z" fill="#005667"/>
<path d="M26.8151 26.7405L19.7781 30.9627L26.8151 34.4812V26.7405Z" fill="#008BA2"/>
<path d="M33.1483 30.9627L26.8149 26.7405V34.4812L33.1483 30.9627Z" fill="#008499"/>
<path d="M33.1483 23.2222L26.8149 26.7407L33.1483 30.9629V23.2222Z" fill="#013943"/>
<path d="M19.7781 23.2222V30.9629L26.8151 26.7407L19.7781 23.2222Z" fill="#013943"/>
<path d="M26.8151 19.7037L19.7781 15.4814V23.2222L26.8151 19.7037Z" fill="#008499"/>
<path d="M26.8151 26.7407V19.7036L19.7781 23.2221L26.8151 26.7407Z" fill="#008BA2"/>
<path d="M33.1483 23.2221L26.8149 19.7036V26.7407L33.1483 23.2221Z" fill="#008499"/>
<path d="M33.1479 23.2222V15.4814L39.4813 19.7037L33.1479 23.2222Z" fill="#008499"/>
<path d="M19.7777 30.9627L13.4443 26.7405V34.4812L19.7777 30.9627Z" fill="#008499"/>
<path d="M13.4444 26.7405L7.11108 30.259L13.4444 34.4812V26.7405Z" fill="#008BA2"/>
<path d="M1.422 41.652H3.96L6.912 50.076C7.08 50.556 7.266 51.174 7.47 51.93H7.542C7.758 51.09 7.938 50.472 8.082 50.076L11.052 41.652H13.572V54H11.862V45.846L11.898 43.542H11.772C11.676 44.034 11.574 44.43 11.466 44.73L8.118 54H6.696L3.402 44.73C3.306 44.478 3.204 44.082 3.096 43.542H2.988L3.024 45.846V54H1.422V41.652ZM21.4741 54.216C19.8541 54.216 18.6061 53.826 17.7301 53.046C16.8541 52.266 16.4161 51.066 16.4161 49.446V41.652H18.1261V49.536C18.1261 50.592 18.4141 51.396 18.9901 51.948C19.5781 52.488 20.4061 52.758 21.4741 52.758C22.5541 52.758 23.3881 52.482 23.9761 51.93C24.5641 51.378 24.8581 50.58 24.8581 49.536V41.652H26.5681V49.446C26.5681 51.066 26.1301 52.266 25.2541 53.046C24.3781 53.826 23.1181 54.216 21.4741 54.216ZM33.9604 54.216C32.4604 54.216 31.2364 53.916 30.2884 53.316C29.3404 52.716 28.8664 51.78 28.8664 50.508L28.8844 50.148H30.5764C30.5524 50.316 30.5404 50.442 30.5404 50.526C30.5404 51.258 30.8404 51.816 31.4404 52.2C32.0524 52.572 32.8624 52.758 33.8704 52.758C34.9984 52.758 35.8624 52.584 36.4624 52.236C37.0624 51.876 37.3624 51.366 37.3624 50.706C37.3624 50.262 37.2064 49.896 36.8944 49.608C36.5824 49.308 36.1864 49.074 35.7064 48.906C35.2384 48.738 34.6024 48.552 33.7984 48.348C32.8024 48.096 31.9984 47.856 31.3864 47.628C30.7744 47.388 30.2524 47.04 29.8204 46.584C29.3884 46.116 29.1724 45.504 29.1724 44.748C29.1724 43.668 29.6224 42.846 30.5224 42.282C31.4224 41.718 32.5744 41.436 33.9784 41.436C35.3824 41.436 36.5224 41.724 37.3984 42.3C38.2744 42.864 38.7124 43.734 38.7124 44.91V45.126H37.0384V44.856C37.0384 44.244 36.7564 43.764 36.1924 43.416C35.6404 43.068 34.9204 42.894 34.0324 42.894C33.0844 42.894 32.3224 43.038 31.7464 43.326C31.1824 43.614 30.9004 44.046 30.9004 44.622C30.9004 45.042 31.0504 45.384 31.3504 45.648C31.6624 45.912 32.0404 46.128 32.4844 46.296C32.9404 46.452 33.5704 46.632 34.3744 46.836C35.3704 47.088 36.1804 47.334 36.8044 47.574C37.4404 47.814 37.9744 48.168 38.4064 48.636C38.8504 49.092 39.0724 49.692 39.0724 50.436C39.0724 51.756 38.6104 52.716 37.6864 53.316C36.7744 53.916 35.5324 54.216 33.9604 54.216ZM44.6342 43.146H40.3862V41.652H50.5922V43.146H46.3442V54H44.6342V43.146Z" fill="#013943"/>
<path d="M4.043 58.025C4.169 57.759 4.36267 57.542 4.624 57.374C4.89 57.206 5.20267 57.122 5.562 57.122C5.912 57.122 6.22467 57.2037 6.5 57.367C6.77533 57.5257 6.99 57.7543 7.144 58.053C7.30267 58.347 7.382 58.69 7.382 59.082C7.382 59.474 7.30267 59.8193 7.144 60.118C6.99 60.4167 6.773 60.6477 6.493 60.811C6.21767 60.9743 5.90733 61.056 5.562 61.056C5.198 61.056 4.883 60.9743 4.617 60.811C4.35567 60.643 4.16433 60.426 4.043 60.16V61H3.56V55.82H4.043V58.025ZM6.885 59.082C6.885 58.7647 6.822 58.4917 6.696 58.263C6.57467 58.0297 6.40667 57.8523 6.192 57.731C5.97733 57.6097 5.73467 57.549 5.464 57.549C5.20267 57.549 4.96233 57.612 4.743 57.738C4.52833 57.864 4.358 58.0437 4.232 58.277C4.106 58.5103 4.043 58.781 4.043 59.089C4.043 59.397 4.106 59.6677 4.232 59.901C4.358 60.1343 4.52833 60.314 4.743 60.44C4.96233 60.566 5.20267 60.629 5.464 60.629C5.73467 60.629 5.97733 60.5683 6.192 60.447C6.40667 60.321 6.57467 60.1413 6.696 59.908C6.822 59.67 6.885 59.3947 6.885 59.082ZM9.54363 55.82V61H9.05363V55.82H9.54363ZM13.0962 61.056C12.7369 61.056 12.4126 60.9767 12.1232 60.818C11.8386 60.6547 11.6122 60.426 11.4442 60.132C11.2809 59.8333 11.1992 59.4857 11.1992 59.089C11.1992 58.6923 11.2832 58.347 11.4512 58.053C11.6192 57.7543 11.8479 57.5257 12.1372 57.367C12.4266 57.2037 12.7509 57.122 13.1102 57.122C13.4696 57.122 13.7939 57.2037 14.0832 57.367C14.3772 57.5257 14.6059 57.7543 14.7692 58.053C14.9372 58.347 15.0212 58.6923 15.0212 59.089C15.0212 59.481 14.9372 59.8263 14.7692 60.125C14.6012 60.4237 14.3702 60.6547 14.0762 60.818C13.7822 60.9767 13.4556 61.056 13.0962 61.056ZM13.0962 60.629C13.3482 60.629 13.5816 60.573 13.7962 60.461C14.0109 60.3443 14.1836 60.1717 14.3142 59.943C14.4496 59.7097 14.5172 59.425 14.5172 59.089C14.5172 58.753 14.4519 58.4707 14.3212 58.242C14.1906 58.0087 14.0179 57.836 13.8032 57.724C13.5886 57.6073 13.3552 57.549 13.1032 57.549C12.8512 57.549 12.6179 57.6073 12.4032 57.724C12.1886 57.836 12.0159 58.0087 11.8852 58.242C11.7592 58.4707 11.6962 58.753 11.6962 59.089C11.6962 59.425 11.7592 59.7097 11.8852 59.943C12.0159 60.1717 12.1862 60.3443 12.3962 60.461C12.6109 60.573 12.8442 60.629 13.0962 60.629ZM16.4605 59.089C16.4605 58.6923 16.5398 58.347 16.6985 58.053C16.8571 57.7543 17.0765 57.5257 17.3565 57.367C17.6365 57.2037 17.9561 57.122 18.3155 57.122C18.7868 57.122 19.1741 57.2387 19.4775 57.472C19.7855 57.7053 19.9838 58.0227 20.0725 58.424H19.5475C19.4821 58.1487 19.3398 57.934 19.1205 57.78C18.9058 57.6213 18.6375 57.542 18.3155 57.542C18.0588 57.542 17.8278 57.6003 17.6225 57.717C17.4171 57.8337 17.2538 58.0087 17.1325 58.242C17.0158 58.4707 16.9575 58.753 16.9575 59.089C16.9575 59.425 17.0158 59.7097 17.1325 59.943C17.2538 60.1763 17.4171 60.3513 17.6225 60.468C17.8278 60.5847 18.0588 60.643 18.3155 60.643C18.6375 60.643 18.9058 60.566 19.1205 60.412C19.3398 60.2533 19.4821 60.034 19.5475 59.754H20.0725C19.9838 60.146 19.7855 60.461 19.4775 60.699C19.1695 60.937 18.7821 61.056 18.3155 61.056C17.9561 61.056 17.6365 60.9767 17.3565 60.818C17.0765 60.6547 16.8571 60.426 16.6985 60.132C16.5398 59.8333 16.4605 59.4857 16.4605 59.089ZM23.8124 61L22.2374 59.285V61H21.7474V55.82H22.2374V58.886L23.7774 57.178H24.4634L22.6504 59.082L24.4774 61H23.8124ZM25.6567 59.089C25.6567 58.6923 25.736 58.347 25.8947 58.053C26.0534 57.7543 26.2727 57.5257 26.5527 57.367C26.8327 57.2037 27.1524 57.122 27.5117 57.122C27.983 57.122 28.3704 57.2387 28.6737 57.472C28.9817 57.7053 29.18 58.0227 29.2687 58.424H28.7437C28.6784 58.1487 28.536 57.934 28.3167 57.78C28.102 57.6213 27.8337 57.542 27.5117 57.542C27.255 57.542 27.024 57.6003 26.8187 57.717C26.6134 57.8337 26.45 58.0087 26.3287 58.242C26.212 58.4707 26.1537 58.753 26.1537 59.089C26.1537 59.425 26.212 59.7097 26.3287 59.943C26.45 60.1763 26.6134 60.3513 26.8187 60.468C27.024 60.5847 27.255 60.643 27.5117 60.643C27.8337 60.643 28.102 60.566 28.3167 60.412C28.536 60.2533 28.6784 60.034 28.7437 59.754H29.2687C29.18 60.146 28.9817 60.461 28.6737 60.699C28.3657 60.937 27.9784 61.056 27.5117 61.056C27.1524 61.056 26.8327 60.9767 26.5527 60.818C26.2727 60.6547 26.0534 60.426 25.8947 60.132C25.736 59.8333 25.6567 59.4857 25.6567 59.089ZM32.7637 57.108C33.053 57.108 33.312 57.1687 33.5407 57.29C33.774 57.4113 33.956 57.598 34.0867 57.85C34.222 58.0973 34.2897 58.4007 34.2897 58.76V61H33.8067V58.816C33.8067 58.4007 33.7017 58.0833 33.4917 57.864C33.2863 57.6447 33.004 57.535 32.6447 57.535C32.276 57.535 31.982 57.6517 31.7627 57.885C31.5433 58.1183 31.4337 58.4613 31.4337 58.914V61H30.9437V55.82H31.4337V57.829C31.555 57.6003 31.7323 57.423 31.9657 57.297C32.2037 57.171 32.4697 57.108 32.7637 57.108ZM35.9194 59.082C35.9194 58.69 35.9964 58.347 36.1504 58.053C36.309 57.7543 36.526 57.5257 36.8014 57.367C37.0814 57.2037 37.3964 57.122 37.7464 57.122C38.1104 57.122 38.423 57.206 38.6844 57.374C38.9504 57.542 39.1417 57.7567 39.2584 58.018V57.178H39.7484V61H39.2584V60.153C39.137 60.4143 38.9434 60.6313 38.6774 60.804C38.416 60.972 38.1034 61.056 37.7394 61.056C37.394 61.056 37.0814 60.9743 36.8014 60.811C36.526 60.6477 36.309 60.4167 36.1504 60.118C35.9964 59.8193 35.9194 59.474 35.9194 59.082ZM39.2584 59.089C39.2584 58.781 39.1954 58.5103 39.0694 58.277C38.9434 58.0437 38.7707 57.864 38.5514 57.738C38.3367 57.612 38.0987 57.549 37.8374 57.549C37.5667 57.549 37.324 57.6097 37.1094 57.731C36.8947 57.8523 36.7244 58.0297 36.5984 58.263C36.477 58.4917 36.4164 58.7647 36.4164 59.082C36.4164 59.3947 36.477 59.67 36.5984 59.908C36.7244 60.1413 36.8947 60.321 37.1094 60.447C37.324 60.5683 37.5667 60.629 37.8374 60.629C38.0987 60.629 38.3367 60.566 38.5514 60.44C38.7707 60.314 38.9434 60.1343 39.0694 59.901C39.1954 59.6677 39.2584 59.397 39.2584 59.089ZM41.882 56.457C41.784 56.457 41.7 56.422 41.63 56.352C41.56 56.282 41.525 56.1957 41.525 56.093C41.525 55.9903 41.56 55.9063 41.63 55.841C41.7 55.771 41.784 55.736 41.882 55.736C41.98 55.736 42.064 55.771 42.134 55.841C42.204 55.9063 42.239 55.9903 42.239 56.093C42.239 56.1957 42.204 56.282 42.134 56.352C42.064 56.422 41.98 56.457 41.882 56.457ZM42.127 57.178V61H41.637V57.178H42.127ZM45.7986 57.108C46.2559 57.108 46.6293 57.2503 46.9186 57.535C47.2079 57.815 47.3526 58.2233 47.3526 58.76V61H46.8696V58.816C46.8696 58.4007 46.7646 58.0833 46.5546 57.864C46.3493 57.6447 46.0669 57.535 45.7076 57.535C45.3389 57.535 45.0449 57.6517 44.8256 57.885C44.6063 58.1183 44.4966 58.4613 44.4966 58.914V61H44.0066V57.178H44.4966V57.829C44.6179 57.5957 44.7929 57.4183 45.0216 57.297C45.2503 57.171 45.5093 57.108 45.7986 57.108Z" fill="#008499"/>
</svg>